0, 0, Header, 1, 1, 480
1, 0, Start_track
1, 0, Title_t, "Trombone\000"
1, 0, Time_signature, 4, 2, 24, 8
1, 0, Key_signature, -2, "major"
1, 0, Tempo, 476190
1, 0, Control_c, 0, 121, 0
1, 0, Program_c, 0, 57
1, 0, Control_c, 0, 7, 100
1, 0, Control_c, 0, 10, 64
1, 0, Control_c, 0, 91, 0
1, 0, Control_c, 0, 93, 0
1, 0, MIDI_port, 0
1, 0, Note_on_c, 0, 53, 80
1, 0, Control_c, 0, 2, 80
1, 0, Control_c, 1, 121, 0
1, 0, Program_c, 1, 59
1, 0, Control_c, 1, 7, 100
1, 0, Control_c, 1, 10, 64
1, 0, Control_c, 1, 91, 0
1, 0, Control_c, 1, 93, 0
1, 0, MIDI_port, 0
1, 959, Note_on_c, 0, 53, 0
1, 1440, Note_on_c, 0, 46, 80
1, 1799, Note_on_c, 0, 46, 0
1, 1800, Note_on_c, 0, 46, 80
1, 1919, Note_on_c, 0, 46, 0
1, 1920, Note_on_c, 0, 54, 80
1, 2003, Control_c, 0, 2, 81
1, 2085, Control_c, 0, 2, 82
1, 2168, Control_c, 0, 2, 83
1, 2250, Control_c, 0, 2, 84
1, 2333, Control_c, 0, 2, 85
1, 2415, Control_c, 0, 2, 86
1, 2498, Control_c, 0, 2, 87
1, 2580, Control_c, 0, 2, 88
1, 2663, Control_c, 0, 2, 89
1, 2745, Control_c, 0, 2, 90
1, 2828, Control_c, 0, 2, 91
1, 2910, Control_c, 0, 2, 92
1, 2993, Control_c, 0, 2, 93
1, 3075, Control_c, 0, 2, 94
1, 3158, Control_c, 0, 2, 95
1, 3239, Note_on_c, 0, 54, 0
1, 3240, Control_c, 0, 2, 96
1, 3240, Note_on_c, 0, 51, 96
1, 3359, Note_on_c, 0, 51, 0
1, 3360, Note_on_c, 0, 46, 96
1, 3519, Note_on_c, 0, 46, 0
1, 3520, Note_on_c, 0, 51, 96
1, 3679, Note_on_c, 0, 51, 0
1, 3680, Note_on_c, 0, 54, 96
1, 3839, Note_on_c, 0, 54, 0
1, 3840, Note_on_c, 0, 56, 96
1, 4799, Note_on_c, 0, 56, 0
1, 4960, Note_on_c, 0, 49, 96
1, 5119, Note_on_c, 0, 49, 0
1, 5120, Note_on_c, 0, 51, 96
1, 5279, Note_on_c, 0, 51, 0
1, 5280, Note_on_c, 0, 53, 96
1, 5439, Note_on_c, 0, 53, 0
1, 5440, Note_on_c, 0, 54, 96
1, 5599, Note_on_c, 0, 54, 0
1, 5600, Note_on_c, 0, 56, 96
1, 5759, Note_on_c, 0, 56, 0
1, 5760, Control_c, 0, 2, 127
1, 5760, Note_on_c, 0, 58, 127
1, 5803, Control_c, 0, 2, 126
1, 5803, Control_c, 0, 2, 127
1, 5804, Control_c, 0, 2, 126
1, 5804, Control_c, 0, 2, 127
1, 5805, Control_c, 0, 2, 126
1, 5805, Control_c, 0, 2, 127
1, 5806, Control_c, 0, 2, 125
1, 5806, Control_c, 0, 2, 127
1, 5807, Control_c, 0, 2, 125
1, 5807, Control_c, 0, 2, 127
1, 5808, Control_c, 0, 2, 124
1, 5808, Control_c, 0, 2, 127
1, 5809, Control_c, 0, 2, 124
1, 5809, Control_c, 0, 2, 127
1, 5810, Control_c, 0, 2, 124
1, 5810, Control_c, 0, 2, 127
1, 5811, Control_c, 0, 2, 123
1, 5811, Control_c, 0, 2, 127
1, 5812, Control_c, 0, 2, 123
1, 5812, Control_c, 0, 2, 127
1, 5813, Control_c, 0, 2, 122
1, 5813, Control_c, 0, 2, 127
1, 5814, Control_c, 0, 2, 122
1, 5814, Control_c, 0, 2, 127
1, 5815, Control_c, 0, 2, 122
1, 5815, Control_c, 0, 2, 127
1, 5816, Control_c, 0, 2, 121
1, 5816, Control_c, 0, 2, 127
1, 5817, Control_c, 0, 2, 121
1, 5817, Control_c, 0, 2, 127
1, 5818, Control_c, 0, 2, 120
1, 5818, Control_c, 0, 2, 127
1, 5819, Control_c, 0, 2, 120
1, 5819, Control_c, 0, 2, 127
1, 5820, Control_c, 0, 2, 120
1, 5820, Control_c, 0, 2, 127
1, 5821, Control_c, 0, 2, 119
1, 5821, Control_c, 0, 2, 127
1, 5822, Control_c, 0, 2, 119
1, 5822, Control_c, 0, 2, 127
1, 5823, Control_c, 0, 2, 118
1, 5823, Control_c, 0, 2, 127
1, 5824, Control_c, 0, 2, 118
1, 5824, Control_c, 0, 2, 127
1, 5825, Control_c, 0, 2, 118
1, 5825, Control_c, 0, 2, 127
1, 5826, Control_c, 0, 2, 117
1, 5826, Control_c, 0, 2, 127
1, 5827, Control_c, 0, 2, 117
1, 5827, Control_c, 0, 2, 127
1, 5828, Control_c, 0, 2, 116
1, 5828, Control_c, 0, 2, 127
1, 5829, Control_c, 0, 2, 116
1, 5829, Control_c, 0, 2, 127
1, 5830, Control_c, 0, 2, 116
1, 5830, Control_c, 0, 2, 127
1, 5831, Control_c, 0, 2, 115
1, 5831, Control_c, 0, 2, 127
1, 5832, Control_c, 0, 2, 115
1, 5832, Control_c, 0, 2, 127
1, 5833, Control_c, 0, 2, 114
1, 5833, Control_c, 0, 2, 127
1, 5834, Control_c, 0, 2, 114
1, 5834, Control_c, 0, 2, 127
1, 5835, Control_c, 0, 2, 114
1, 5835, Control_c, 0, 2, 127
1, 5836, Control_c, 0, 2, 113
1, 5836, Control_c, 0, 2, 127
1, 5837, Control_c, 0, 2, 113
1, 5837, Control_c, 0, 2, 127
1, 5838, Control_c, 0, 2, 112
1, 5838, Control_c, 0, 2, 127
1, 5839, Control_c, 0, 2, 112
1, 5839, Control_c, 0, 2, 127
1, 5840, Control_c, 0, 2, 112
1, 5840, Control_c, 0, 2, 127
1, 5843, Control_c, 0, 2, 126
1, 5846, Control_c, 0, 2, 124
1, 5847, Control_c, 0, 2, 123
1, 5848, Control_c, 0, 2, 122
1, 5849, Control_c, 0, 2, 121
1, 5851, Control_c, 0, 2, 119
1, 5853, Control_c, 0, 2, 117
1, 5856, Control_c, 0, 2, 115
1, 5858, Control_c, 0, 2, 113
1, 5860, Control_c, 0, 2, 112
1, 5861, Control_c, 0, 2, 111
1, 5862, Control_c, 0, 2, 110
1, 5863, Control_c, 0, 2, 109
1, 5864, Control_c, 0, 2, 108
1, 5866, Control_c, 0, 2, 106
1, 5868, Control_c, 0, 2, 105
1, 5869, Control_c, 0, 2, 104
1, 5871, Control_c, 0, 2, 102
1, 5873, Control_c, 0, 2, 100
1, 5876, Control_c, 0, 2, 98
1, 5878, Control_c, 0, 2, 96
1, 6719, Note_on_c, 0, 58, 0
1, 6720, Note_on_c, 0, 60, 127
1, 6720, Control_c, 0, 2, 127
1, 6763, Control_c, 0, 2, 126
1, 6766, Control_c, 0, 2, 125
1, 6768, Control_c, 0, 2, 124
1, 6771, Control_c, 0, 2, 123
1, 6773, Control_c, 0, 2, 122
1, 6776, Control_c, 0, 2, 121
1, 6778, Control_c, 0, 2, 120
1, 6781, Control_c, 0, 2, 119
1, 6783, Control_c, 0, 2, 118
1, 6786, Control_c, 0, 2, 117
1, 6788, Control_c, 0, 2, 116
1, 6791, Control_c, 0, 2, 115
1, 6793, Control_c, 0, 2, 114
1, 6796, Control_c, 0, 2, 113
1, 6798, Control_c, 0, 2, 112
1, 6801, Control_c, 0, 2, 111
1, 6803, Control_c, 0, 2, 110
1, 6806, Control_c, 0, 2, 109
1, 6808, Control_c, 0, 2, 108
1, 6811, Control_c, 0, 2, 107
1, 6813, Control_c, 0, 2, 106
1, 6816, Control_c, 0, 2, 105
1, 6818, Control_c, 0, 2, 104
1, 6821, Control_c, 0, 2, 103
1, 6823, Control_c, 0, 2, 102
1, 6826, Control_c, 0, 2, 101
1, 6828, Control_c, 0, 2, 100
1, 6831, Control_c, 0, 2, 99
1, 6833, Control_c, 0, 2, 98
1, 6836, Control_c, 0, 2, 97
1, 6838, Control_c, 0, 2, 96
1, 7679, Note_on_c, 0, 60, 0
1, 7680, End_track
0, 0, End_of_file