0, 0, Header, 1, 1, 480
1, 0, Start_track
1, 0, Title_t, "Alto Saxophone\000"
1, 0, Time_signature, 2, 2, 24, 8
1, 0, Key_signature, 0, "major"
1, 0, Tempo, 500000
1, 0, Control_c, 0, 121, 0
1, 0, Program_c, 0, 65
1, 0, Control_c, 0, 7, 100
1, 0, Control_c, 0, 10, 64
1, 0, Control_c, 0, 91, 0
1, 0, Control_c, 0, 93, 0
1, 0, MIDI_port, 0
1, 0, Note_on_c, 0, 68, 80
1, 0, Control_c, 0, 2, 80
1, 239, Note_on_c, 0, 68, 0
1, 240, Note_on_c, 0, 65, 80
1, 479, Note_on_c, 0, 65, 0
1, 600, Note_on_c, 0, 72, 96
1, 600, Control_c, 0, 2, 96
1, 659, Note_on_c, 0, 72, 0
1, 720, Note_on_c, 0, 72, 96
1, 839, Note_on_c, 0, 72, 0
1, 840, Note_on_c, 0, 70, 96
1, 959, Note_on_c, 0, 70, 0
1, 960, Note_on_c, 0, 68, 96
1, 1199, Note_on_c, 0, 68, 0
1, 1200, Note_on_c, 0, 65, 96
1, 1439, Note_on_c, 0, 65, 0
1, 1560, Note_on_c, 0, 68, 96
1, 1619, Note_on_c, 0, 68, 0
1, 1680, Note_on_c, 0, 68, 96
1, 1799, Note_on_c, 0, 68, 0
1, 1800, Note_on_c, 0, 67, 96
1, 1919, Note_on_c, 0, 67, 0
1, 1920, Note_on_c, 0, 65, 96
1, 2039, Note_on_c, 0, 65, 0
1, 2040, Note_on_c, 0, 68, 96
1, 2159, Note_on_c, 0, 68, 0
1, 2160, Note_on_c, 0, 68, 96
1, 2279, Note_on_c, 0, 68, 0
1, 2280, Note_on_c, 0, 73, 96
1, 2399, Note_on_c, 0, 73, 0
1, 2400, Note_on_c, 0, 77, 96
1, 2519, Note_on_c, 0, 77, 0
1, 2520, Note_on_c, 0, 73, 96
1, 2639, Note_on_c, 0, 73, 0
1, 2640, Note_on_c, 0, 73, 96
1, 2759, Note_on_c, 0, 73, 0
1, 2760, Note_on_c, 0, 72, 96
1, 2879, Note_on_c, 0, 72, 0
1, 2880, Note_on_c, 0, 71, 96
1, 2999, Note_on_c, 0, 71, 0
1, 3000, Note_on_c, 0, 67, 96
1, 3119, Note_on_c, 0, 67, 0
1, 3120, Note_on_c, 0, 67, 96
1, 3239, Note_on_c, 0, 67, 0
1, 3240, Note_on_c, 0, 70, 96
1, 3359, Note_on_c, 0, 70, 0
1, 3360, Note_on_c, 0, 72, 96
1, 3599, Note_on_c, 0, 72, 0
1, 3600, Note_on_c, 0, 65, 96
1, 3839, Note_on_c, 0, 65, 0
1, 3840, Note_on_c, 0, 63, 96
1, 4319, Note_on_c, 0, 63, 0
1, 4320, Note_on_c, 0, 62, 96
1, 4379, Note_on_c, 0, 62, 0
1, 4380, Note_on_c, 0, 63, 96
1, 4439, Note_on_c, 0, 63, 0
1, 4440, Note_on_c, 0, 62, 96
1, 4499, Note_on_c, 0, 62, 0
1, 4500, Note_on_c, 0, 63, 96
1, 4559, Note_on_c, 0, 63, 0
1, 4560, Note_on_c, 0, 62, 96
1, 4619, Note_on_c, 0, 62, 0
1, 4620, Note_on_c, 0, 63, 96
1, 4679, Note_on_c, 0, 63, 0
1, 4680, Note_on_c, 0, 62, 96
1, 4739, Note_on_c, 0, 62, 0
1, 4740, Note_on_c, 0, 63, 96
1, 4799, Note_on_c, 0, 63, 0
1, 4800, Note_on_c, 0, 60, 96
1, 5039, Note_on_c, 0, 60, 0
1, 5040, Note_on_c, 0, 67, 96
1, 5279, Note_on_c, 0, 67, 0
1, 5280, Note_on_c, 0, 69, 96
1, 5519, Note_on_c, 0, 69, 0
1, 5520, Note_on_c, 0, 71, 96
1, 5759, Note_on_c, 0, 71, 0
1, 5760, Note_on_c, 0, 72, 96
1, 5879, Note_on_c, 0, 72, 0
1, 5880, Note_on_c, 0, 67, 96
1, 5999, Note_on_c, 0, 67, 0
1, 6000, Note_on_c, 0, 67, 96
1, 6119, Note_on_c, 0, 67, 0
1, 6120, Note_on_c, 0, 68, 96
1, 6239, Note_on_c, 0, 68, 0
1, 6240, Note_on_c, 0, 67, 96
1, 6359, Note_on_c, 0, 67, 0
1, 6360, Note_on_c, 0, 65, 96
1, 6479, Note_on_c, 0, 65, 0
1, 6480, Note_on_c, 0, 63, 96
1, 6599, Note_on_c, 0, 63, 0
1, 6600, Note_on_c, 0, 62, 96
1, 6719, Note_on_c, 0, 62, 0
1, 6720, Note_on_c, 0, 63, 96
1, 6839, Note_on_c, 0, 63, 0
1, 6840, Note_on_c, 0, 60, 96
1, 6899, Note_on_c, 0, 60, 0
1, 6900, Note_on_c, 0, 62, 96
1, 6959, Note_on_c, 0, 62, 0
1, 6960, Note_on_c, 0, 63, 96
1, 7079, Note_on_c, 0, 63, 0
1, 7080, Note_on_c, 0, 60, 96
1, 7199, Note_on_c, 0, 60, 0
1, 7200, Note_on_c, 0, 65, 96
1, 7319, Note_on_c, 0, 65, 0
1, 7320, Note_on_c, 0, 63, 96
1, 7439, Note_on_c, 0, 63, 0
1, 7440, Note_on_c, 0, 62, 96
1, 7559, Note_on_c, 0, 62, 0
1, 7560, Note_on_c, 0, 65, 96
1, 7619, Note_on_c, 0, 65, 0
1, 7680, Note_on_c, 0, 63, 96
1, 8039, Note_on_c, 0, 63, 0
1, 8040, Note_on_c, 0, 65, 96
1, 8159, Note_on_c, 0, 65, 0
1, 8160, Note_on_c, 0, 63, 96
1, 8279, Note_on_c, 0, 63, 0
1, 8280, Note_on_c, 0, 62, 96
1, 8399, Note_on_c, 0, 62, 0
1, 8400, Note_on_c, 0, 60, 96
1, 8519, Note_on_c, 0, 60, 0
1, 8520, Note_on_c, 0, 59, 96
1, 8639, Note_on_c, 0, 59, 0
1, 8640, Note_on_c, 0, 60, 96
1, 8699, Note_on_c, 0, 60, 0
1, 8760, Note_on_c, 0, 72, 96
1, 8879, Note_on_c, 0, 72, 0
1, 8880, Note_on_c, 0, 68, 96
1, 8999, Note_on_c, 0, 68, 0
1, 9000, Note_on_c, 0, 65, 96
1, 9119, Note_on_c, 0, 65, 0
1, 9120, Note_on_c, 0, 62, 96
1, 9178, Note_on_c, 0, 62, 0
1, 9179, Note_on_c, 0, 63, 96
1, 9237, Note_on_c, 0, 63, 0
1, 9239, Note_on_c, 0, 62, 96
1, 9297, Note_on_c, 0, 62, 0
1, 9300, Note_on_c, 0, 63, 96
1, 9358, Note_on_c, 0, 63, 0
1, 9359, Note_on_c, 0, 62, 96
1, 9417, Note_on_c, 0, 62, 0
1, 9419, Note_on_c, 0, 63, 96
1, 9477, Note_on_c, 0, 63, 0
1, 9480, Note_on_c, 0, 60, 96
1, 9599, Note_on_c, 0, 60, 0
1, 9600, Note_on_c, 0, 60, 96
1, 10319, Note_on_c, 0, 60, 0
1, 10320, End_track
0, 0, End_of_file