0, 0, Header, 1, 1, 480
1, 0, Start_track
1, 0, Title_t, "Horn in F\000"
1, 0, Time_signature, 4, 2, 24, 8
1, 0, Key_signature, -2, "major"
1, 0, Tempo, 545455
1, 0, Control_c, 0, 121, 0
1, 0, Program_c, 0, 60
1, 0, Control_c, 0, 7, 100
1, 0, Control_c, 0, 10, 64
1, 0, Control_c, 0, 91, 0
1, 0, Control_c, 0, 93, 0
1, 0, MIDI_port, 0
1, 0, Note_on_c, 0, 60, 80
1, 0, Control_c, 0, 2, 80
1, 0, Control_c, 1, 121, 0
1, 0, Program_c, 1, 59
1, 0, Control_c, 1, 7, 100
1, 0, Control_c, 1, 10, 64
1, 0, Control_c, 1, 91, 0
1, 0, Control_c, 1, 93, 0
1, 0, MIDI_port, 0
1, 719, Note_on_c, 0, 60, 0
1, 720, Note_on_c, 0, 63, 80
1, 959, Note_on_c, 0, 63, 0
1, 960, Note_on_c, 0, 68, 80
1, 1679, Note_on_c, 0, 68, 0
1, 1680, Note_on_c, 0, 72, 80
1, 1919, Note_on_c, 0, 72, 0
1, 1920, Note_on_c, 0, 70, 80
1, 2639, Note_on_c, 0, 70, 0
1, 2640, Note_on_c, 0, 72, 80
1, 2759, Note_on_c, 0, 72, 0
1, 2760, Note_on_c, 0, 74, 80
1, 2879, Note_on_c, 0, 74, 0
1, 2880, Note_on_c, 0, 75, 80
1, 2999, Note_on_c, 0, 75, 0
1, 3000, Note_on_c, 0, 74, 80
1, 3119, Note_on_c, 0, 74, 0
1, 3120, Note_on_c, 0, 72, 80
1, 3239, Note_on_c, 0, 72, 0
1, 3240, Note_on_c, 0, 70, 80
1, 3359, Note_on_c, 0, 70, 0
1, 3360, Note_on_c, 0, 68, 80
1, 3479, Note_on_c, 0, 68, 0
1, 3480, Note_on_c, 0, 67, 80
1, 3599, Note_on_c, 0, 67, 0
1, 3600, Note_on_c, 0, 65, 80
1, 3719, Note_on_c, 0, 65, 0
1, 3720, Note_on_c, 0, 63, 80
1, 3839, Note_on_c, 0, 63, 0
1, 3840, Note_on_c, 0, 70, 80
1, 4079, Note_on_c, 0, 70, 0
1, 4080, Note_on_c, 0, 68, 80
1, 4319, Note_on_c, 0, 68, 0
1, 4320, Note_on_c, 0, 67, 80
1, 5279, Note_on_c, 0, 67, 0
1, 5280, Note_on_c, 0, 65, 80
1, 5759, Note_on_c, 0, 65, 0
1, 5760, Note_on_c, 0, 63, 80
1, 6239, Note_on_c, 0, 63, 0
1, 6240, End_track
0, 0, End_of_file